<mxfile host="app.diagrams.net" modified="2020-10-20T06:00:07.412Z" agent="5.0 (Windows NT 10.0; Win64; x64) AppleWebKit/537.36 (KHTML, like Gecko) Chrome/86.0.4240.75 Safari/537.36" etag="QSY-s4-kF3_7hdFrq2Gf" version="13.8.0" type="github">
  <diagram id="eg24cAQ9VhInonkqMwhh" name="Page-1">
    <mxGraphModel dx="1422" dy="762" grid="1" gridSize="10" guides="1" tooltips="1" connect="1" arrows="1" fold="1" page="1" pageScale="1" pageWidth="1169" pageHeight="827" math="0" shadow="0">
      <root>
        <mxCell id="0" />
        <mxCell id="1" parent="0" />
        <mxCell id="zZNlommBTBB-APjahQV_-14" value="" style="shape=cube;whiteSpace=wrap;html=1;boundedLbl=1;backgroundOutline=1;darkOpacity=0.05;darkOpacity2=0.1;shadow=1;flipH=1;" vertex="1" parent="1">
          <mxGeometry x="450" y="180" width="30" height="170" as="geometry" />
        </mxCell>
        <mxCell id="zZNlommBTBB-APjahQV_-19" value="Q" style="whiteSpace=wrap;html=1;shadow=1;" vertex="1" parent="1">
          <mxGeometry x="270" y="244" width="83.34" height="50" as="geometry" />
        </mxCell>
        <mxCell id="zZNlommBTBB-APjahQV_-22" value="" style="shape=cube;whiteSpace=wrap;html=1;boundedLbl=1;backgroundOutline=1;darkOpacity=0.05;darkOpacity2=0.1;shadow=1;flipH=1;" vertex="1" parent="1">
          <mxGeometry x="460" y="200" width="30" height="130" as="geometry" />
        </mxCell>
        <mxCell id="zZNlommBTBB-APjahQV_-23" value="" style="shape=cube;whiteSpace=wrap;html=1;boundedLbl=1;backgroundOutline=1;darkOpacity=0.05;darkOpacity2=0.1;shadow=1;flipH=1;" vertex="1" parent="1">
          <mxGeometry x="470" y="220" width="30" height="90" as="geometry" />
        </mxCell>
        <mxCell id="zZNlommBTBB-APjahQV_-24" value="" style="shape=cube;whiteSpace=wrap;html=1;boundedLbl=1;backgroundOutline=1;darkOpacity=0.05;darkOpacity2=0.1;shadow=1;flipH=1;" vertex="1" parent="1">
          <mxGeometry x="480" y="230" width="30" height="70" as="geometry" />
        </mxCell>
        <mxCell id="zZNlommBTBB-APjahQV_-25" value="" style="shape=cube;whiteSpace=wrap;html=1;boundedLbl=1;backgroundOutline=1;darkOpacity=0.05;darkOpacity2=0.1;shadow=1;flipH=0;direction=south;flipV=0;size=10;" vertex="1" parent="1">
          <mxGeometry x="490" y="247.96" width="110" height="38.08" as="geometry" />
        </mxCell>
        <mxCell id="zZNlommBTBB-APjahQV_-37" value="" style="shape=cube;whiteSpace=wrap;html=1;boundedLbl=1;backgroundOutline=1;darkOpacity=0.05;darkOpacity2=0.1;shadow=1;flipH=1;" vertex="1" parent="1">
          <mxGeometry x="60" y="182" width="30" height="170" as="geometry" />
        </mxCell>
        <mxCell id="zZNlommBTBB-APjahQV_-38" value="" style="shape=cube;whiteSpace=wrap;html=1;boundedLbl=1;backgroundOutline=1;darkOpacity=0.05;darkOpacity2=0.1;shadow=1;flipH=1;" vertex="1" parent="1">
          <mxGeometry x="70" y="202" width="30" height="130" as="geometry" />
        </mxCell>
        <mxCell id="zZNlommBTBB-APjahQV_-39" value="" style="shape=cube;whiteSpace=wrap;html=1;boundedLbl=1;backgroundOutline=1;darkOpacity=0.05;darkOpacity2=0.1;shadow=1;flipH=1;" vertex="1" parent="1">
          <mxGeometry x="80" y="222" width="30" height="90" as="geometry" />
        </mxCell>
        <mxCell id="zZNlommBTBB-APjahQV_-40" value="" style="shape=cube;whiteSpace=wrap;html=1;boundedLbl=1;backgroundOutline=1;darkOpacity=0.05;darkOpacity2=0.1;shadow=1;flipH=1;" vertex="1" parent="1">
          <mxGeometry x="90" y="232" width="30" height="70" as="geometry" />
        </mxCell>
        <mxCell id="zZNlommBTBB-APjahQV_-41" value="" style="shape=cube;whiteSpace=wrap;html=1;boundedLbl=1;backgroundOutline=1;darkOpacity=0.05;darkOpacity2=0.1;shadow=1;flipH=0;direction=south;flipV=0;size=10;" vertex="1" parent="1">
          <mxGeometry x="100" y="249.96000000000004" width="110" height="38.08" as="geometry" />
        </mxCell>
        <mxCell id="zZNlommBTBB-APjahQV_-42" value="" style="shape=cube;whiteSpace=wrap;html=1;boundedLbl=1;backgroundOutline=1;darkOpacity=0.05;darkOpacity2=0.1;shadow=1;flipH=1;" vertex="1" parent="1">
          <mxGeometry x="60" y="430" width="30" height="170" as="geometry" />
        </mxCell>
        <mxCell id="zZNlommBTBB-APjahQV_-43" value="" style="shape=cube;whiteSpace=wrap;html=1;boundedLbl=1;backgroundOutline=1;darkOpacity=0.05;darkOpacity2=0.1;shadow=1;flipH=1;" vertex="1" parent="1">
          <mxGeometry x="70" y="450" width="30" height="130" as="geometry" />
        </mxCell>
        <mxCell id="zZNlommBTBB-APjahQV_-44" value="" style="shape=cube;whiteSpace=wrap;html=1;boundedLbl=1;backgroundOutline=1;darkOpacity=0.05;darkOpacity2=0.1;shadow=1;flipH=1;" vertex="1" parent="1">
          <mxGeometry x="80" y="470" width="30" height="90" as="geometry" />
        </mxCell>
        <mxCell id="zZNlommBTBB-APjahQV_-45" value="" style="shape=cube;whiteSpace=wrap;html=1;boundedLbl=1;backgroundOutline=1;darkOpacity=0.05;darkOpacity2=0.1;shadow=1;flipH=1;" vertex="1" parent="1">
          <mxGeometry x="90" y="480" width="30" height="70" as="geometry" />
        </mxCell>
        <mxCell id="zZNlommBTBB-APjahQV_-46" value="" style="shape=cube;whiteSpace=wrap;html=1;boundedLbl=1;backgroundOutline=1;darkOpacity=0.05;darkOpacity2=0.1;shadow=1;flipH=0;direction=south;flipV=0;size=10;" vertex="1" parent="1">
          <mxGeometry x="100" y="497.96000000000004" width="110" height="38.08" as="geometry" />
        </mxCell>
        <mxCell id="zZNlommBTBB-APjahQV_-52" value="" style="shape=cube;whiteSpace=wrap;html=1;boundedLbl=1;backgroundOutline=1;darkOpacity=0.05;darkOpacity2=0.1;shadow=1;flipH=1;" vertex="1" parent="1">
          <mxGeometry x="390" y="476" width="40" height="104" as="geometry" />
        </mxCell>
      </root>
    </mxGraphModel>
  </diagram>
</mxfile>
